<svg xmlns="http://www.w3.org/2000/svg" version="1.1" xmlns:xlink="http://www.w3.org/1999/xlink" xmlns:svgjs="http://svgjs.dev/svgjs" width="100%" height="100%" viewBox="0 0 1000 600"><rect width="1000" height="600" x="0" y="0" fill="#000000"/><g><rect width="333.3333333333333" height="333.3333333333333" y="109.72856097803248" fill="#ffffff" transform="matrix(1.4284679669429634,0,0,1.4284679669429634,0,-94.82173662395049)" x="87.50634002685545"/><path d="M134.73807309845597 329.27764998009206Q112.64903257970938 307.16007064930585 112.64903257970938 276.33815364640367Q112.64903257970938 245.54477545554118 134.73807309845597 223.48427374883437Q156.7985748051628 201.3952332300878 187.62049180806497 201.3952332300878L187.62049180806497 201.3952332300878Q212.70610759098258 201.3952332300878 233.254052259584 216.9488857917375L233.254052259584 216.9488857917375L221.32482882697929 228.87810922434224Q205.65702101717068 216.9488857917375 187.62049180806497 216.9488857917375L187.62049180806497 216.9488857917375Q164.21866593549112 216.9488857917375 147.66615495245105 234.41463876004877Q131.113643969411 251.85185291632024 131.113643969411 276.33815364640367Q131.113643969411 300.8244543764871 147.66615495245105 318.2902073447982Q164.21866593549112 335.75596031310954 187.62049180806497 335.75596031310954L187.62049180806497 335.75596031310954Q207.5691214238322 335.75596031310954 223.03715754936275 322.59956796279664L223.03715754936275 322.59956796279664L223.03715754936275 286.66920360478383L195.44012630694942 286.66920360478383L195.44012630694942 273.5413500665107L241.47323012702464 273.5413500665107L241.47323012702464 328.5071020550196Q235.16615266624558 334.84271832783827 229.14446332586374 338.8666908254395L229.14446332586374 338.8666908254395Q210.28030856760603 351.39522931087845 187.62049180806497 351.39522931087845L187.62049180806497 351.39522931087845Q156.7985748051628 351.39522931087845 134.73807309845597 329.27764998009206ZM276.29058081548817 348.2844987985484L257.85450823782634 348.2844987985484L317.2437760924925 204.4203473062986L335.7083874821941 204.4203473062986L395.6969703896944 348.2844987985484L377.23235899999275 348.2844987985484L357.0554188879077 300.2251393236528L296.0679775590171 300.2251393236528L276.29058081548817 348.2844987985484ZM326.4618123813234 223.37011850067546L301.77573996696196 286.66920360478383L351.547428164241 286.66920360478383L326.4618123813234 223.37011850067546Z " fill="#00" transform="matrix(1.4284679669429634,0,0,1.4284679669429634,0,-94.82173662395049)"/><path d="M557.1089295519837 351.39523356104337L504.17300398012526 351.39523356104337L504.17300398012526 201.39523310700284L555.6211295078056 201.39523310700284Q568.9220619027581 201.39523310700284 578.6522741916831 205.05522121568106Q588.3824864806083 208.7152093243593 593.2922266263961 214.72592150283901Q598.201966772184 220.73663368131872 600.3443988358006 226.6878338580313Q602.4868308994171 232.6687900356274 602.4868308994171 238.94730622205918L602.4868308994171 238.94730622205918Q602.4868308994171 256.5033467433613 588.3824864806083 266.14429102963567L588.3824864806083 266.14429102963567Q612.5443591980613 277.5408393680403 612.5443591980613 303.9939241535277L612.5443591980613 303.9939241535277Q612.5443591980613 324.82312477202163 597.9044067633483 338.12405716697435Q583.2644543286353 351.39523356104337 557.1089295519837 351.39523356104337L557.1089295519837 351.39523356104337ZM523.4251365517905 274.5057272779169L523.4251365517905 337.261133141351L553.4489414433053 337.261133141351Q593.2922266263961 337.261133141351 593.2922266263961 303.9939241535277L593.2922266263961 303.9939241535277Q593.2922266263961 288.84811970379417 584.0976223533751 281.88521549704046Q574.8732620794708 274.92231129028676 555.4128375016205 274.5057272779169L555.4128375016205 274.5057272779169L523.4251365517905 274.5057272779169ZM523.4251365517905 215.82689353553081L523.4251365517905 260.16333485203955L551.9611413991272 260.16333485203955Q569.7552299274978 260.16333485203955 576.5098421280666 255.31310670801878Q583.2644543286353 250.43312256311447 583.2644543286353 238.94730622205918L583.2644543286353 238.94730622205918Q583.2644543286353 226.89612586421623 576.3908181245324 221.27224169722285Q569.546937921313 215.61860152934588 551.9611413991272 215.61860152934588L551.9611413991272 215.61860152934588Q548.7177373028189 215.82689353553081 541.9333691013667 215.82689353553081L541.9333691013667 215.82689353553081L523.4251365517905 215.82689353553081Z " fill="#ffffff" transform="matrix(1.4284679669429634,0,0,1.4284679669429634,0,-94.82173662395049)"/></g></svg>